<?xml version="1.0" encoding="utf-8"?>
<!-- Svg Vector Icons : http://www.onlinewebfonts.com/icon -->
<!DOCTYPE svg PUBLIC "-//W3C//DTD SVG 1.1//EN" "http://www.w3.org/Graphics/SVG/1.1/DTD/svg11.dtd">
<svg version="1.1" xmlns="http://www.w3.org/2000/svg" xmlns:xlink="http://www.w3.org/1999/xlink" x="0px" y="0px" viewBox="0 0 1000 1000" enable-background="new 0 0 1000 1000" xml:space="preserve">
<metadata> Svg Vector Icons : http://www.onlinewebfonts.com/icon </metadata>
<g><g><g><path d="M488.6,935.9c55.4-55.4,71.5-137.8,51-219.7c3.9-38.4,31.6-53.2,50.7-58.9c11-1,22.2-3,33.3-6.5c70.6-22,121.5-93.4,101.3-125.4c-13.5-21.4-27-33.8-67.1-14h0l0,0c-4.6,2.2-9.5,4.9-14.8,8.1c-14.5,6.4-36.5,11.9-50.9-4.1c-14.6-16.3-6.8-43,0.9-60.4l198.4-201.5l0.1,0.1c0.3-0.4,0.7-0.8,1-1.2l5.2-5.3c18.3-16.4,42.6-19.4,55.8-6.3c0.6,0.6,1,1.3,1.5,2c0.8-2,1.6-4,2.6-6c9.6-21.1,26.6-45.1,49.2-67.8c20.7-20.7,42.5-36.7,62.2-46.6c1.9-1,3.7-1.8,5.6-2.6l10.1-10.1c-0.8-6.4,0.2-14.3,5.3-23.8c0,0-16.5-22.9-17.7-37.8c-0.6-7.9-5.4-9.7-9.8-9.8c-3.9,0-7.5,1.3-7.5,1.3s1.4-3.6,1.3-7.5c-0.1-4.4-1.9-9.2-9.8-9.8c-14.9-1.2-37.8-17.7-37.8-17.7c-9.5,5.1-17.4,6.1-23.8,5.3l-10.1,10.1c-0.8,1.9-1.6,3.7-2.6,5.6c-9.9,19.7-26,41.5-46.6,62.2c-22.6,22.6-46.7,39.7-67.8,49.2c-2,0.9-4.1,1.8-6,2.6c0.6,0.5,1.4,0.9,2,1.5c11.9,11.9,10.6,33-1.8,50.5L545.7,401c-17.6,9.9-49.9,23.8-64.9,2.4c-16.9-24.1-6.1-52.7-1-63.3c0.7-1.4,1.4-2.7,2.1-4.1c0,0,0.1-0.1,0.1-0.1l0,0c20-40.3,7.5-53.8-13.8-67.4c-32-20.2-103.3,30.6-125.4,101.3c-1.8,5.7-3.1,11.5-4.2,17.2l-0.1,0c0,0,0,0.5-0.1,1.3c-0.5,2.5-1,5.1-1.3,7.6c-4.5,20.7-22,69.7-85.4,63v0c-68.9-7.7-135,11-181.9,57.9c-93.2,93.2-75,262.6,40.7,378.4C226,1010.9,395.4,1029.1,488.6,935.9z"/></g></g><g></g><g></g><g></g><g></g><g></g><g></g><g></g><g></g><g></g><g></g><g></g><g></g><g></g><g></g><g></g></g>
</svg>